<?xml version="1.0" encoding="UTF-8"?>
<!DOCTYPE svg PUBLIC "-//W3C//DTD SVG 1.1//EN" "http://www.w3.org/Graphics/SVG/1.1/DTD/svg11.dtd">
<!-- Creator: CorelDRAW 2020 (64 Bit) -->
<svg xmlns="http://www.w3.org/2000/svg" xml:space="preserve" width="896px" height="850px" version="1.1" style="shape-rendering:geometricPrecision; text-rendering:geometricPrecision; image-rendering:optimizeQuality; fill-rule:evenodd; clip-rule:evenodd"
viewBox="0 0 36.72 34.81"
 xmlns:xlink="http://www.w3.org/1999/xlink"
 xmlns:xodm="http://www.corel.com/coreldraw/odm/2003">
 <defs>
  <style type="text/css">
   <![CDATA[
    .fil0 {fill:#1A8AFF}
    .fil1 {fill:#333246}
    .fil3 {fill:#575A88}
    .fil5 {fill:#7A6585}
    .fil6 {fill:#A0616A}
    .fil4 {fill:#D0CDE1}
    .fil8 {fill:#E3897B}
    .fil7 {fill:#FEB400}
    .fil2 {fill:white}
   ]]>
  </style>
 </defs>
 <g id="Camada_x0020_1">
  <metadata id="CorelCorpID_0Corel-Layer"/>
  <g id="_1954840002512">
   <path class="fil0" d="M13.32 10.42l1.81 0.29c-0.36,-0.33 -0.62,-0.67 -0.8,-1.12 -0.12,-0.32 -0.14,-0.55 -0.22,-0.73 -0.57,-1.25 -0.43,-2.66 0.22,-3.74 1.62,-2.72 5.67,-2.5 7.03,0.35 0.89,1.87 0.21,4.11 -1.55,5.17 -0.38,0.23 -0.83,0.42 -1.35,0.51 -0.64,0.12 -0.86,0.3 -1.63,0.27 0.08,0.23 0.09,0.36 -0.09,0.51 -0.69,0.58 -2.83,0.89 -3.66,0.96 0.03,0.07 0.05,0.14 0.09,0.23l0.33 0.66c0.37,0.58 0.56,1.25 0.76,1.92l0.3 1.01c0.26,0.07 0.87,1.35 0.78,1.69 -0.12,0.46 -0.71,0.31 -1.17,-0.21 -0.11,-0.12 -0.02,-0.04 -0.17,-0.13 -0.1,-0.06 -0.14,-0.09 -0.21,-0.14 0,-0.49 -0.04,-0.81 0.15,-1.17 -0.14,-0.21 -0.41,-0.96 -0.61,-1.15l-0.01 2.71 0.16 -0.01 -0.16 0.78 0 9.72c0.5,0.01 1.11,0.03 1.54,-0.02 0.18,-0.02 1.14,0.02 1.49,0.02 1.08,0 2.15,0.02 3.23,0 0.07,-0.14 0.7,-0.75 1.11,-1.89 0.25,-0.7 0.52,-1.7 0.44,-2.61 -0.12,0.18 -0.31,1.21 -1.54,1.67 -2.13,0.79 -4.19,-1.58 -2.85,-3.69 0.87,-1.36 3.09,-1.48 4.07,0.08 0.07,0.11 0.05,0.11 0.13,0.18 -0.02,-0.32 -0.28,-1.14 -0.38,-1.41 -0.16,-0.43 -0.35,-0.89 -0.54,-1.29 -0.52,-1.07 -1.08,-1.91 -1.71,-2.84 -0.13,-0.19 -0.26,-0.34 -0.38,-0.54l-0.65 -1.18c-0.22,-0.43 -0.91,-1.97 -0.99,-2.46 -0.04,-0.3 -0.02,-0.11 0.04,-0.19 0.37,1.57 1.2,2.9 1.24,3.08l0.02 -0.2c-0.27,-2.84 3.16,-3.69 4.44,-1.69 1.35,2.12 -0.87,4.67 -3.18,3.51 -0.16,-0.08 -0.22,-0.14 -0.36,-0.21l0.78 1.21c1.37,2.3 2.43,5.01 1.74,7.8 -0.15,0.59 -0.3,0.92 -0.54,1.45 -0.24,0.51 -0.52,0.81 -0.81,1.22l4.14 0c0.05,-0.58 0,-6.09 0,-6.83 0,-0.7 -0.05,-6.7 0.04,-6.82 0.13,0.04 0.08,0.04 0.08,0.48 0,0.19 0,0.39 0,0.58l0.2 0c0.02,-0.35 0.03,-1.04 -0.14,-1.29l-0.71 0.37c-0.16,0.1 -0.56,0.42 -0.75,0.25 -0.1,-0.09 -0.08,-0.11 -0.03,-0.26 0.06,-0.19 0.06,-0.16 0.2,-0.2 0.21,-0.06 -0.05,0.19 0.35,-0.37 0.18,-0.25 0.08,-0.27 0.16,-0.56 0.17,-0.61 0.07,-0.07 0.08,-0.58 0.01,-1.23 0.68,-1.14 0.79,-1.36 0.1,-0.19 -0.11,-0.07 0.23,-0.44l-0.05 -0.44c-0.23,-0.19 -0.47,-0.26 -0.45,-0.71 0.02,-0.2 0.06,-0.34 0.18,-0.43 0.05,-0.03 0.14,-0.08 0.19,-0.12 0.72,-0.55 1.29,0.32 0.92,1.14 0.11,0.15 0.08,0.3 0.12,0.43 0.04,0.14 0.13,0.15 0.23,0.28 0.16,-0.06 0.05,-0.09 0.22,-0.13 0.14,-0.04 0.09,0 0.2,-0.13 0,0 0.32,0.18 0.56,-0.1l0.35 -0.42c0.35,-0.34 0.22,-0.44 0.42,-0.91 0.06,-0.15 -0.01,-0.06 0.09,-0.14l0 -0.27c-0.26,0 -0.6,-0.04 -0.81,-0.09 0.06,-0.25 0.17,-0.44 0.26,-0.69 0.11,-0.34 0.01,-0.43 0.36,-0.52 0.25,-0.06 1.07,0.15 1.36,0.39l-0.08 0.76c-0.17,0.08 -0.4,0.12 -0.62,0.1l-0.12 0.09 -0.01 0.34c0.18,0.06 -0.09,1.37 -0.21,1.58 -0.22,0.36 -0.6,0.84 -0.9,1.09 -0.19,0.15 -0.16,0.36 -0.17,0.77 -0.02,1.09 0.12,0.99 0.37,1.6 0.17,0.42 0.11,0.41 0.16,0.85l0.05 0.13 1.24 0c0,-0.21 -0.04,-1.03 0.04,-1.15 0.15,0.05 0.09,0.23 0.09,0.6l0 10.9c0.47,-0.4 0.23,-0.17 0.61,-0.61 0.54,-0.6 1.36,-1.51 2.42,-1.27 0.35,0.08 0.54,0.32 0.61,0.62 0.12,0.45 -0.02,0.78 0.02,1.16 0.06,0.48 0.6,0.24 0.95,0.22 0.49,-0.03 0.63,0.06 1.04,0.18 0.07,-0.19 0.48,-0.8 0.62,-1.06 0.6,-1.08 1.14,-2.4 1.48,-3.6 0.55,-1.89 0.79,-3.96 0.64,-6.05 -0.29,-4.01 -1.89,-7.29 -3.82,-9.7l-0.59 -0.67c-0.07,-0.08 -0.11,-0.15 -0.19,-0.23 -0.07,-0.08 -0.14,-0.13 -0.22,-0.2l-1.06 -1.04 -1.44 -1.12c-3.87,-2.71 -8.61,-3.81 -13.37,-2.87 -0.75,0.14 -2.01,0.44 -2.65,0.74l-0.02 9.35z"/>
   <path class="fil0" d="M32.38 28.88l-19.06 -0.01 0.01 4.87c1.3,0.61 3.95,1.01 5.43,1.06 3.7,0.11 7.16,-0.92 10.13,-2.86 1.08,-0.7 1.84,-1.35 2.69,-2.19 0.25,-0.25 0.62,-0.6 0.8,-0.87z"/>
   <path class="fil1" d="M3.22 25.8c-0.02,0.12 -0.02,0.04 0.04,0.07 0.17,-0.31 0.27,-0.47 0.49,-0.72 0.11,-0.11 0.17,-0.2 0.3,-0.31 0.12,-0.1 0.22,-0.19 0.34,-0.26 0.22,0.32 0.34,1.15 0.34,1.63 -0.4,0.29 -0.75,0.58 -0.99,1 -0.07,0.14 -0.13,0.29 -0.21,0.42 -0.11,0.3 -0.2,0.68 -0.3,0.95 -0.17,-0.6 -0.24,-0.99 -0.54,-1.47 -0.4,-0.64 -0.75,-0.74 -1.01,-0.97 -0.61,-0.2 -0.56,-0.37 -1.66,-0.49 0.11,1.23 0.78,2.28 1.78,2.77 0.56,0.28 0.8,0.25 1.15,0.38l-2.8 0c-0.22,0.02 -0.08,-0.01 -0.14,0.05l13.31 0.02 19.06 0.01 2.19 -0.02c-0.05,-0.05 0.09,-0.06 -0.33,-0.06 -0.13,0 -0.26,0 -0.38,0 -0.81,0 -5.23,0.03 -5.56,-0.01l-0.01 -2.22 0 -10.9c0,-0.37 0.06,-0.55 -0.09,-0.6 -0.08,0.12 -0.04,0.94 -0.04,1.15l-1.24 0 -0.05 -0.13 -0.29 0.17c-0.63,0.27 -1.81,0.83 -2.41,0.7 0.01,0.46 0.09,0.95 0.09,1.3l-0.38 0 0 -1.87c0.12,-0.08 0.07,-0.05 0.24,-0.05l0 -0.1 -0.2 -0.03c0,-0.19 0,-0.39 0,-0.58 0,-0.44 0.05,-0.44 -0.08,-0.48 -0.09,0.12 -0.04,6.12 -0.04,6.82 0,0.74 0.05,6.25 0,6.83l-4.14 0 -0.08 0c-1.08,0.02 -2.15,0 -3.23,0 -0.35,0 -1.31,-0.04 -1.49,-0.02 -0.43,0.05 -1.04,0.03 -1.54,0.02l-3.18 0c0.81,-1.08 1.26,-2.09 1.25,-3.58 0,-1.13 -0.24,-2.03 -0.63,-3.01 -0.07,-0.18 -0.35,-0.71 -0.35,-0.83 0.73,-0.14 1.41,-0.35 1.87,-0.73 0.55,-0.45 0.72,-0.82 1.04,-1.57l0.16 -0.78 -0.16 0.01c-2.85,0.47 -2.82,2.66 -3,2.97 -0.52,-1.08 -1.43,-2.14 -2.07,-3.43 -0.6,-1.19 -1.19,-2.73 -0.76,-4.44l-0.09 0.01c-0.13,0.92 -0.24,1.25 -0.01,2.31 0.16,0.73 0.4,1.3 0.68,1.92 0.56,1.28 1.34,2.13 1.97,3.26 0.95,1.7 1.77,4.16 0.97,6.22 -0.25,0.65 -0.57,1.21 -0.96,1.67l-6.73 0c0.18,-0.09 0.65,-0.11 1.17,-0.35 0.37,-0.17 0.68,-0.37 0.92,-0.61 0.45,-0.45 0.91,-1.28 0.97,-2.14 -0.66,0.02 -1.08,0.27 -1.58,0.46 -0.01,-0.59 -0.14,-1.28 -0.38,-1.69 -0.23,0.13 -0.49,0.4 -0.65,0.58 -0.42,0.46 -0.27,0.35 -0.55,0.75z"/>
   <path class="fil2" d="M15.13 10.71c0.33,0.05 0.63,0.16 0.94,0.27 0.22,0.08 0.68,0.31 0.76,0.44 0.77,0.03 0.99,-0.15 1.63,-0.27 0.52,-0.09 0.97,-0.28 1.35,-0.51 1.76,-1.06 2.44,-3.3 1.55,-5.17 -1.36,-2.85 -5.41,-3.07 -7.03,-0.35 -0.65,1.08 -0.79,2.49 -0.22,3.74 0.08,0.18 0.1,0.41 0.22,0.73 0.18,0.45 0.44,0.79 0.8,1.12z"/>
   <path class="fil2" d="M19.58 28.8l0.08 0c0.29,-0.41 0.57,-0.71 0.81,-1.22 0.24,-0.53 0.39,-0.86 0.54,-1.45 0.69,-2.79 -0.37,-5.5 -1.74,-7.8l-0.78 -1.21c0.14,0.07 0.2,0.13 0.36,0.21 2.31,1.16 4.53,-1.39 3.18,-3.51 -1.28,-2 -4.71,-1.15 -4.44,1.69l-0.02 0.2c-0.04,-0.18 -0.87,-1.51 -1.24,-3.08 -0.06,0.08 -0.08,-0.11 -0.04,0.19 0.08,0.49 0.77,2.03 0.99,2.46l0.65 1.18c0.12,0.2 0.25,0.35 0.38,0.54 0.63,0.93 1.19,1.77 1.71,2.84 0.19,0.4 0.38,0.86 0.54,1.29 0.1,0.27 0.36,1.09 0.38,1.41 -0.08,-0.07 -0.06,-0.07 -0.13,-0.18 -0.98,-1.56 -3.2,-1.44 -4.07,-0.08 -1.34,2.11 0.72,4.48 2.85,3.69 1.23,-0.46 1.42,-1.49 1.54,-1.67 0.08,0.91 -0.19,1.91 -0.44,2.61 -0.41,1.14 -1.04,1.75 -1.11,1.89z"/>
   <path class="fil2" d="M13.32 18.31l0.01 -2.71c-0.06,-0.17 -0.09,-0.15 -0.2,-0.27 -0.08,-0.09 -0.1,-0.13 -0.16,-0.25 -0.07,-0.16 -0.16,-0.43 -0.22,-0.62 -0.21,-0.74 -0.32,-0.52 -0.64,-1.06l-3.04 0.06c0.13,0.33 0.07,0.63 0.41,1.35 0.9,0.03 0.91,0 0.75,0.85 -0.08,0.39 -0.49,1.56 -0.95,1.55 -0.28,0 -0.12,-0.43 -0.09,-0.61 0.08,-0.37 -0.43,-1 -0.13,-1.25 -0.14,-0.32 -0.97,-1.64 -1.04,-1.9l-0.53 -0.04c-0.43,1.71 0.16,3.25 0.76,4.44 0.64,1.29 1.55,2.35 2.07,3.43 0.18,-0.31 0.15,-2.5 3,-2.97z"/>
   <path class="fil0" d="M13.83 6.92c0,0.54 0.02,1.22 0.26,1.72 0.04,0.08 0.02,0.03 0.05,0.08 -0.07,-1.8 1.12,-3.2 2.98,-3.2 2.63,0 3.76,3.3 2.07,4.99 -0.3,0.3 -0.61,0.47 -0.7,0.57 3.08,-0.61 4.35,-4.45 1.91,-6.79 -1.62,-1.54 -4.43,-1.36 -5.81,0.56 -0.33,0.46 -0.76,1.32 -0.76,2.07z"/>
   <path class="fil2" d="M13.32 28.8l0 -9.72c-0.32,0.75 -0.49,1.12 -1.04,1.57 -0.46,0.38 -1.14,0.59 -1.87,0.73 0,0.12 0.28,0.65 0.35,0.83 0.39,0.98 0.63,1.88 0.63,3.01 0.01,1.49 -0.44,2.5 -1.25,3.58l3.18 0z"/>
   <path class="fil3" d="M25.09 11.21l-0.1 0.31c-0.12,0.03 -0.3,0.05 -0.43,0.02 -0.09,-0.03 -0.1,-0.06 -0.15,-0.11 -0.04,-0.04 0.02,0.01 -0.07,-0.05l-0.09 -0.05 0.05 0.44c-0.34,0.37 -0.13,0.25 -0.23,0.44 -0.11,0.22 -0.78,0.13 -0.79,1.36 -0.01,0.51 0.09,-0.03 -0.08,0.58 -0.08,0.29 0.02,0.31 -0.16,0.56 -0.4,0.56 -0.14,0.31 -0.35,0.37 -0.14,0.04 -0.14,0.01 -0.2,0.2 -0.05,0.15 -0.07,0.17 0.03,0.26 0.19,0.17 0.59,-0.15 0.75,-0.25l0.71 -0.37c0.17,0.25 0.16,0.94 0.14,1.29l-0.2 0 0.2 0.03 0 0.1c-0.17,0 -0.12,-0.03 -0.24,0.05l0 1.87 0.38 0c0,-0.35 -0.08,-0.84 -0.09,-1.3 0.6,0.13 1.78,-0.43 2.41,-0.7l0.29 -0.17c-0.05,-0.44 0.01,-0.43 -0.16,-0.85 -0.25,-0.61 -0.39,-0.51 -0.37,-1.6 0.01,-0.41 -0.02,-0.62 0.17,-0.77 0.3,-0.25 0.68,-0.73 0.9,-1.09 0.12,-0.21 0.39,-1.52 0.21,-1.58l-0.34 -0.11c-0.1,0.08 -0.03,-0.01 -0.09,0.14 -0.2,0.47 -0.07,0.57 -0.42,0.91l-0.35 0.42c-0.24,0.28 -0.56,0.1 -0.56,0.1 -0.11,0.13 -0.06,0.09 -0.2,0.13 -0.17,0.04 -0.06,0.07 -0.22,0.13 -0.1,-0.13 -0.19,-0.14 -0.23,-0.28 -0.04,-0.13 -0.01,-0.28 -0.12,-0.43z"/>
   <path class="fil4" d="M10.95 8.09c-0.21,0.03 -0.28,0.08 -0.44,0.17 -0.21,0.14 -0.12,0.1 -0.35,0.03 -0.17,0.09 -0.41,0.25 -0.57,0.35 -0.57,0.35 -0.17,0.19 -0.46,0.43l0.09 0.03 0.06 1.06 0.03 0.08 0.15 0.88 0.16 0.67c0.1,0.23 0.16,0.32 0.28,0.54 0.05,0.08 0.13,0.2 0.15,0.24 0.06,0.12 0.01,0.13 0.05,0.3 0.23,-0.07 0.3,-0.28 0.65,-0.15 0.02,-0.07 0.04,-0.18 0.03,-0.26 -0.03,-0.19 -0.03,0.04 -0.06,-0.23 -0.04,-0.36 -0.01,-0.17 -0.19,-0.38l-0.06 -0.56c0.18,0.01 0.4,0.03 0.55,0.14 -0.01,0.11 -0.05,0.21 -0.06,0.32 -0.01,0.13 0.03,0.22 0.03,0.33 0,0.15 -0.05,0.17 -0.07,0.31 -0.02,0.15 0.05,0.19 -0.1,0.27 0.22,0.08 0.48,0.12 0.58,0.28l0.09 -0.01c-0.18,-0.53 0.21,-0.67 0.39,-1.34l0.65 0.1c0.41,0 0.16,-0.3 0.07,-0.45 -0.19,-0.33 -0.38,-0.31 -0.42,-0.85 0,-0.12 -0.05,-0.06 0.09,-0.09l-0.12 -0.04c-0.02,-0.26 -0.14,-1.79 -0.25,-1.99 -0.07,-0.13 -0.29,-0.26 -0.51,-0.23l-0.44 0.05z"/>
   <path class="fil2" d="M3.42 12.75c-0.58,-0.2 -0.81,-0.61 0.15,-0.96 1.39,-0.5 4.44,-0.7 5.89,-0.67l-0.15 -0.88c-0.33,0.05 -2.77,0 -3.7,0.1 -0.76,0.08 -5,0.36 -5.46,1.16 -0.06,0.11 -0.04,0.22 0.01,0.3 0.3,0.55 2.65,0.84 3.26,0.95z"/>
   <path class="fil0" d="M3.42 12.75c0.73,0.18 3.5,0.3 4.36,0.3 -0.08,-0.54 -0.67,-0.79 0.9,-1.15l0.94 -0.11 -0.16 -0.67c-1.45,-0.03 -4.5,0.17 -5.89,0.67 -0.96,0.35 -0.73,0.76 -0.15,0.96z"/>
   <path class="fil5" d="M7.4 13.42l0.09 -0.01 0.53 0.04c0.07,0.26 0.9,1.58 1.04,1.9l0.26 -0.06c0.04,-0.11 0.05,-0.12 0.07,-0.24 0.02,-0.23 -0.07,-0.19 0.09,-0.24 -0.34,-0.72 -0.28,-1.02 -0.41,-1.35l3.04 -0.06c-0.04,-0.22 0.02,-0.08 -0.11,-0.13 -0.07,-0.03 -0.15,-0.11 -0.23,-0.16 -0.17,-0.12 -0.14,-0.1 -0.38,-0.08 -0.02,-0.04 -0.02,-0.01 0.01,-0.09 -0.1,-0.16 -0.36,-0.2 -0.58,-0.28 0.15,-0.08 0.08,-0.12 0.1,-0.27 0.02,-0.14 0.07,-0.16 0.07,-0.31 0,-0.11 -0.04,-0.2 -0.03,-0.33 0.01,-0.11 0.05,-0.21 0.06,-0.32 -0.15,-0.11 -0.37,-0.13 -0.55,-0.14l0.06 0.56c0.18,0.21 0.15,0.02 0.19,0.38 0.03,0.27 0.03,0.04 0.06,0.23 0.01,0.08 -0.01,0.19 -0.03,0.26 -0.35,-0.13 -0.42,0.08 -0.65,0.15 -0.31,0.03 -0.53,0.05 -0.85,0.01 -0.07,-0.22 0.07,-0.31 -0.12,-0.61 -0.13,-0.2 -0.23,-0.24 -0.45,-0.37 -1.57,0.36 -0.98,0.61 -0.9,1.15 -0.86,0 -3.63,-0.12 -4.36,-0.3 -0.61,-0.11 -2.96,-0.4 -3.26,-0.95 -0.05,-0.08 -0.07,-0.19 -0.01,-0.3 0.46,-0.8 4.7,-1.08 5.46,-1.16 0.93,-0.1 3.37,-0.05 3.7,-0.1l-0.03 -0.08c-1.02,-0.11 -3.68,0.06 -4.8,0.16 -0.91,0.07 -4.08,0.41 -4.45,1.19 -0.38,0.82 2.65,1.23 2.99,1.29 0.35,0.06 0.73,0.08 1.06,0.16 0.9,0.19 1.27,0.24 2.16,0.35 0.35,0.04 0.85,0.04 1.16,0.11z"/>
   <polygon class="fil0" points="23.92,26.27 28.16,26.27 28.16,24.38 23.93,24.38 "/>
   <path class="fil0" d="M23.92 24.11l0.01 0.14 4.21 0c0.05,-0.32 0.02,-1.47 0.02,-1.88 -1.19,0 -2.1,-0.01 -3.29,0.04l-0.44 0c-0.16,-0.03 0.07,-0.04 -0.13,-0.04l-0.38 0 0 1.74z"/>
   <path class="fil0" d="M12.6 11.24c0.09,0.15 0.34,0.45 -0.07,0.45 0.12,0.34 0.57,0.95 0.5,1.07 0.05,0.12 0.26,0.04 0.59,0 0.24,-0.04 0.44,-0.07 0.67,-0.1 0.61,-0.11 1.92,-0.35 2.38,-0.73 0.14,-0.11 0.27,-0.32 0.09,-0.49 -0.07,-0.06 -0.54,-0.15 -0.65,-0.18 0,0.19 0.07,0.48 0.02,0.61l-0.08 -0.65c-0.44,-0.08 -0.32,-0.31 -1.23,-0.49 -0.39,-0.07 -1.13,-0.22 -1.5,-0.21l0 0.77 -0.72 -0.05z"/>
   <path class="fil0" d="M26.07 28.8c-0.07,-0.36 -0.02,-0.98 0.04,-1.36 0.07,-0.49 0.2,-0.76 0.45,-1.04l-2.64 -0.01 0 2.41 2.15 0z"/>
   <path class="fil6" d="M12.18 10.39l1.14 0.13c0.37,-0.01 1.11,0.14 1.5,0.21 0.91,0.18 0.79,0.41 1.23,0.49l0.08 0.65c0.05,-0.13 -0.02,-0.42 -0.02,-0.61 0.11,0.03 0.58,0.12 0.65,0.18 0.18,0.17 0.05,0.38 -0.09,0.49 -0.46,0.38 -1.77,0.62 -2.38,0.73 -0.23,0.03 -0.43,0.06 -0.67,0.1 -0.33,0.04 -0.54,0.12 -0.59,0 -0.19,-0.09 -0.53,-0.12 -0.73,0.01 -0.25,0.17 -0.17,0.31 -0.3,0.5 0.13,0.05 0.07,-0.09 0.11,0.13 0.32,0.54 0.43,0.32 0.64,1.06 0.06,0.19 0.15,0.46 0.22,0.62 0.06,0.12 0.08,0.16 0.16,0.25 0.11,0.12 0.14,0.1 0.2,0.27 0.2,0.19 0.47,0.94 0.61,1.15 0.26,-0.09 0.33,-0.09 0.62,-0.04l-0.3 -1.01c-0.2,-0.67 -0.39,-1.34 -0.76,-1.92l-0.33 -0.66c-0.04,-0.09 -0.06,-0.16 -0.09,-0.23 0.83,-0.07 2.97,-0.38 3.66,-0.96 0.18,-0.15 0.17,-0.28 0.09,-0.51 -0.08,-0.13 -0.54,-0.36 -0.76,-0.44 -0.31,-0.11 -0.61,-0.22 -0.94,-0.27l-1.81 -0.29 -1.05 -0.12c-0.14,0.03 -0.09,-0.03 -0.09,0.09z"/>
   <path class="fil2" d="M26.07 28.8l2.08 0 0.01 -2.18c-0.36,0.11 -0.44,-0.08 -0.68,-0.19 -0.19,-0.08 -0.69,-0.04 -0.92,-0.03 -0.25,0.28 -0.38,0.55 -0.45,1.04 -0.06,0.38 -0.11,1 -0.04,1.36z"/>
   <path class="fil1" d="M9.13 9.07c0.29,-0.24 -0.11,-0.08 0.46,-0.43 0.16,-0.1 0.4,-0.26 0.57,-0.35l0 -0.27c-0.34,-0.04 -0.59,-0.25 -0.61,-0.55 0.35,-0.2 0.63,-0.41 0.79,-0.8 0.25,0.04 0.32,0.15 0.44,0.29 0.09,0 -0.05,-0.07 0.15,-0.06 0.11,0.36 -0.31,0.84 0.02,1.19l0.44 -0.05c0,-0.67 -0.01,-1.27 -0.32,-1.68 -0.57,-0.75 -1.46,-0.68 -1.84,0.12 -0.22,0.46 -0.28,1.17 -0.31,1.68 -0.03,0.32 0.05,0.61 0.06,0.9l0.15 0.01z"/>
   <path class="fil0" d="M1.68 26.14c0.26,0.23 0.61,0.33 1.01,0.97 0.3,0.48 0.37,0.87 0.54,1.47 0.1,-0.27 0.19,-0.65 0.3,-0.95 -0.04,-0.33 0.03,-0.61 -0.04,-0.97 -0.03,-0.15 -0.07,-0.29 -0.11,-0.42 -0.04,-0.13 -0.11,-0.23 -0.12,-0.37 -0.06,-0.03 -0.06,0.05 -0.04,-0.07l-0.04 -0.05c-0.33,-0.4 -0.47,-0.78 -1.14,-1.24 -0.22,0.36 -0.35,1.13 -0.36,1.63z"/>
   <path class="fil2" d="M3.09 28.74c-0.08,-0.12 -0.14,-0.13 -0.24,-0.22 -0.08,-0.07 -0.18,-0.17 -0.25,-0.25 -0.5,-0.52 -0.89,-1.2 -0.92,-2.02 -0.33,-0.28 -1.01,-0.43 -1.58,-0.52 0.09,0.85 0.48,1.62 0.94,2.08 0.45,0.45 1.23,0.83 2.05,0.93z"/>
   <path class="fil2" d="M3.26 25.87c0.01,0.14 0.08,0.24 0.12,0.37 0.04,0.13 0.08,0.27 0.11,0.42 0.07,0.36 0,0.64 0.04,0.97 0.08,-0.13 0.14,-0.28 0.21,-0.42 0.24,-0.42 0.59,-0.71 0.99,-1 0,-0.48 -0.12,-1.31 -0.34,-1.63 -0.12,0.07 -0.22,0.16 -0.34,0.26 -0.13,0.11 -0.19,0.2 -0.3,0.31 -0.22,0.25 -0.32,0.41 -0.49,0.72z"/>
   <path class="fil7" d="M13.94 16.75c-0.19,0.36 -0.15,0.68 -0.15,1.17 0.07,0.05 0.11,0.08 0.21,0.14 0.15,0.09 0.06,0.01 0.17,0.13 0.46,0.52 1.05,0.67 1.17,0.21 0.09,-0.34 -0.52,-1.62 -0.78,-1.69 -0.29,-0.05 -0.36,-0.05 -0.62,0.04z"/>
   <path class="fil7" d="M9.06 15.35c-0.3,0.25 0.21,0.88 0.13,1.25 -0.03,0.18 -0.19,0.61 0.09,0.61 0.46,0.01 0.87,-1.16 0.95,-1.55 0.16,-0.85 0.15,-0.82 -0.75,-0.85 -0.16,0.05 -0.07,0.01 -0.09,0.24 -0.02,0.12 -0.03,0.13 -0.07,0.24l-0.26 0.06z"/>
   <path class="fil0" d="M25.55 20.71c0,0.13 -0.01,0.27 -0.02,0.39 -0.02,0.23 0.02,0.23 0.02,0.45 0,0.13 -0.04,0.26 -0.01,0.37 0.02,0.12 0.06,0.15 0.08,0.34l1.81 0c-0.12,-0.09 -0.27,-0.09 -0.41,-0.1 -0.15,-0.02 -0.29,-0.04 -0.44,-0.06 -0.11,-0.26 0.1,-0.2 0.05,-0.85 -0.03,-0.29 -0.12,-0.6 -0.15,-0.88l-0.93 0 0 0.34z"/>
   <path class="fil0" d="M27.27 18.23l0.89 0 0 -1.88 -1.18 0c0.12,0.62 0.23,1.19 0.29,1.88z"/>
   <path class="fil1" d="M24.25 11.33l0.09 0.05c0.09,0.06 0.03,0.01 0.07,0.05 0.05,0.05 0.06,0.08 0.15,0.11 0.13,0.03 0.31,0.01 0.43,-0.02l0.1 -0.31c0.37,-0.82 -0.2,-1.69 -0.92,-1.14 -0.05,0.04 -0.14,0.09 -0.19,0.12 -0.12,0.09 -0.16,0.23 -0.18,0.43 -0.02,0.45 0.22,0.52 0.45,0.71z"/>
   <path class="fil7" d="M27.28 9.82c-0.04,-0.34 -0.31,-0.57 -0.21,-1.05 0.49,-0.12 0.56,0.68 0.56,1.03l0.12 -0.03c0.22,0.02 0.45,-0.02 0.62,-0.1l0.08 -0.76c-0.29,-0.24 -1.11,-0.45 -1.36,-0.39 -0.35,0.09 -0.25,0.18 -0.36,0.52 -0.09,0.25 -0.2,0.44 -0.26,0.69 0.21,0.05 0.55,0.09 0.81,0.09z"/>
   <polygon class="fil0" points="27.39,20.24 28.15,20.24 28.16,20.1 28.16,18.36 27.28,18.36 "/>
   <path class="fil1" d="M11.4 12.94c-0.03,0.08 -0.03,0.05 -0.01,0.09 0.24,-0.02 0.21,-0.04 0.38,0.08 0.08,0.05 0.16,0.13 0.23,0.16 0.13,-0.19 0.05,-0.33 0.3,-0.5 0.2,-0.13 0.54,-0.1 0.73,-0.01 0.07,-0.12 -0.38,-0.73 -0.5,-1.07l-0.65 -0.1c-0.18,0.67 -0.57,0.81 -0.39,1.34l-0.09 0.01z"/>
   <path class="fil6" d="M10.16 8.29c0.23,0.07 0.14,0.11 0.35,-0.03 0.16,-0.09 0.23,-0.14 0.44,-0.17 -0.33,-0.35 0.09,-0.83 -0.02,-1.19 -0.2,-0.01 -0.06,0.06 -0.15,0.06 -0.12,-0.14 -0.19,-0.25 -0.44,-0.29 -0.16,0.39 -0.44,0.6 -0.79,0.8 0.02,0.3 0.27,0.51 0.61,0.55l0 0.27z"/>
   <path class="fil0" d="M3.09 28.74c0.15,0 0.04,0.01 0.08,-0.04 -0.05,-0.51 -0.27,-1.07 -0.49,-1.46 -0.21,-0.35 -0.64,-0.85 -1,-0.99 0.03,0.82 0.42,1.5 0.92,2.02 0.07,0.08 0.17,0.18 0.25,0.25 0.1,0.09 0.16,0.1 0.24,0.22z"/>
   <path class="fil0" d="M25.54 19.95l0.02 0.29 0.87 0c0,-0.33 -0.17,-0.63 -0.22,-0.98 -0.07,-0.49 -0.01,-0.31 -0.2,-0.71 -0.11,-0.24 -0.1,-0.19 -0.47,-0.19l0 1.59z"/>
   <path class="fil0" d="M23.92 22.26c0.69,0 0.36,-0.01 0.55,-0.09 0.08,-0.02 0.03,-0.01 0.1,-0.02l0.12 -0.03c0.08,-0.19 0.12,-0.17 0.07,-0.38 -0.02,-0.12 -0.02,-0.18 -0.07,-0.26l-0.08 -0.09c-0.17,-0.2 -0.17,-0.71 -0.2,-1.01l-0.49 -0.01 0 1.89z"/>
   <path class="fil0" d="M27.87 22.26l0.29 0 0 -1.89 -0.76 0c0.04,0.27 0.08,0.34 0,0.61 -0.01,0.06 0,0.43 0,0.54 0.02,0.43 0.79,0.16 0.47,0.74z"/>
   <path class="fil0" d="M2.63 23.73c0,0.79 1.2,0.71 1.14,-0.03 -0.05,-0.72 -1.14,-0.69 -1.14,0.03z"/>
   <path class="fil1" d="M8.68 11.9c0.22,0.13 0.32,0.17 0.45,0.37 0.19,0.3 0.05,0.39 0.12,0.61 0.32,0.04 0.54,0.02 0.85,-0.01 -0.04,-0.17 0.01,-0.18 -0.05,-0.3 -0.02,-0.04 -0.1,-0.16 -0.15,-0.24 -0.12,-0.22 -0.18,-0.31 -0.28,-0.54l-0.94 0.11z"/>
   <path class="fil2" d="M12.6 11.24l0.72 0.05 0 -0.77 -1.14 -0.13c0.04,0.54 0.23,0.52 0.42,0.85z"/>
   <path class="fil0" d="M23.92 20.1l0.01 0.14 0.45 0c0.04,-0.24 -0.07,-1.26 -0.09,-1.63 -0.02,-0.34 -0.03,-0.25 -0.37,-0.25l0 1.74z"/>
   <path class="fil8" d="M27.28 9.82l0 0.27 0.34 0.11 0.01 -0.34 0.12 -0.09 -0.12 0.03c0,-0.35 -0.07,-1.15 -0.56,-1.03 -0.1,0.48 0.17,0.71 0.21,1.05z"/>
  </g>
 </g>
</svg>
